<svg xmlns="http://www.w3.org/2000/svg" shape-rendering="geometricPrecision" text-rendering="geometricPrecision" image-rendering="optimizeQuality" fill-rule="evenodd" clip-rule="evenodd" viewBox="0 0 512 406.52"><path d="M512 0v339.71H336.77v34.2h51.21v32.61H122.93v-32.61h54.85v-34.2H0V0h512zM60.73 251.43h342.85v15.07H60.73v-15.07zm0-40.23H279.5v15.07H60.73V211.2zm334.59-84.15 58.05.2c-.05 15.9-6.28 31.12-17.31 42.28a59.295 59.295 0 0 1-8.49 7.1l-32.25-49.58zm-5.95-11.83-3.1-63.73c-.06-1.26.89-2.33 2.11-2.39.36-.02.78-.04 1.25-.05.39-.02.81-.02 1.25-.03 17.05-.19 32.69 6.45 44.38 17.5 11.69 11.05 19.42 26.52 20.64 43.99.08 1.26-.84 2.35-2.07 2.44l-62.08 4.56c-1.22.08-2.29-.86-2.37-2.12-.01-.06-.01-.11-.01-.17zm1.45-61.64 2.88 59.2 57.56-4.22c-1.62-15.33-8.64-28.88-19.01-38.68-10.89-10.3-25.46-16.48-41.33-16.3h-.1zm-8.4 70.74 31.12 55.36c-9.46 5.61-20.2 8.57-31.12 8.57-34.38 0-62.25-28.63-62.25-63.93 0-31.73 22.65-58.65 53.21-63.26l9.04 63.26zM204.76 55.94l-4.96-6.31c-.78-1.09-1.02-2.12-.7-3.07.84-2.56 3.86-2.31 5.95-2.17 5.94.43 19.95.56 23.01.68 2.24.16 3.55 1.84 3.17 4.05-.62 3.09-3.47 17.97-4.49 23.62-.36 1.96-.95 4.51-3.42 4.7-1 .08-1.94-.4-2.82-1.41l-4.95-6.32-2.3-2.92-30.93 20.03c-.39 7.79-6.83 13.99-14.72 13.99-8.14 0-14.74-6.6-14.74-14.74 0-.33.01-.66.03-.98l-17.1-12.35a14.583 14.583 0 0 1-8.41 2.64c-4.26 0-8.09-1.81-10.78-4.7L87.93 86.05c.06.5.08 1.01.08 1.53 0 8.14-6.6 14.74-14.73 14.74-8.14 0-14.74-6.6-14.74-14.74s6.6-14.74 14.74-14.74c2.95 0 5.69.87 8 2.36l31.55-16.91c1.12-7.02 7.21-12.39 14.55-12.39 8.14 0 14.74 6.6 14.74 14.74 0 .32-.01.65-.03.98l17.1 12.35a14.68 14.68 0 0 1 8.41-2.64c3.7 0 7.08 1.37 9.67 3.62l28.11-18.21-.62-.8zm6.78 38.03h20.32c1.17 0 2.13.96 2.13 2.13v78.95c0 1.17-.96 2.13-2.13 2.13h-20.32c-1.16 0-2.13-.96-2.13-2.13V96.1c0-1.17.96-2.13 2.13-2.13zm-49.47 27.06h20.32c1.17 0 2.13.96 2.13 2.13v51.89c0 1.17-.96 2.13-2.13 2.13h-20.32c-1.17 0-2.13-.96-2.13-2.13v-51.89c0-1.17.96-2.13 2.13-2.13zm-49.48-27.06h20.33c1.17 0 2.12.96 2.12 2.13v78.95c0 1.17-.96 2.13-2.12 2.13h-20.33c-1.16 0-2.12-.96-2.12-2.13V96.1c0-1.17.95-2.13 2.12-2.13zm-49.48 31.42h20.33c1.17 0 2.12.97 2.12 2.13v47.53c0 1.17-.96 2.13-2.12 2.13H63.11c-1.16 0-2.12-.96-2.12-2.13v-47.53c0-1.17.95-2.13 2.12-2.13zM15.28 296.18h481.37V15.28H15.28v280.9z"/></svg>