<svg id="Layer_1" data-name="Layer 1" xmlns="http://www.w3.org/2000/svg" viewBox="0 0 122.88 109.03"><defs><style>.cls-1{fill-rule:evenodd;}</style></defs><title>stock-market</title><path class="cls-1" d="M0,19.4a6.13,6.13,0,0,1,12.26,0V96.78H116.75a6.13,6.13,0,1,1,0,12.25H0V19.4ZM107.82,8.22a6.77,6.77,0,1,1-4,12.24l-14.45,11a6.54,6.54,0,0,1,.06.89,6.77,6.77,0,0,1-13.53,0,6.59,6.59,0,0,1,.12-1.27l-7.42-5.35,0,0a15.08,15.08,0,0,1-21.33,0c-.29-.29-.57-.6-.83-.91l-7.57,5.38a6.51,6.51,0,0,1,.34,2.13,6.76,6.76,0,1,1-6.76-6.77,6.65,6.65,0,0,1,2.75.59l8.51-6.06a15.09,15.09,0,1,1,29.31-5,14.94,14.94,0,0,1-1.32,6.17l7.41,5.35a6.76,6.76,0,0,1,7.43.19L101.1,15.73a6.17,6.17,0,0,1,0-.75,6.76,6.76,0,0,1,6.76-6.76ZM63,12.27c-1.92-.21-3.32-.31-4.19-.31A8.07,8.07,0,0,0,57.3,12a.29.29,0,0,0-.21.29.4.4,0,0,0,.25.35,9.64,9.64,0,0,0,1.39.37c.75.17,1.38.32,1.86.47a9.47,9.47,0,0,1,1.4.55,2.47,2.47,0,0,1,1,.79,4.92,4.92,0,0,1,.63,2.73,4.44,4.44,0,0,1-1.24,3.52,3.31,3.31,0,0,1-2.76,1.16v1.52H56.35V22.26a14,14,0,0,1-3.28-.58l-.64-.14.19-3.61a36,36,0,0,0,5.12.46,2.2,2.2,0,0,0,.83-.11.38.38,0,0,0,.23-.35.32.32,0,0,0-.24-.31,12,12,0,0,0-1.32-.25A7.69,7.69,0,0,1,53.36,16a4.08,4.08,0,0,1-1-3.11c0-1.76.41-3,1.23-3.68a3.32,3.32,0,0,1,2.8-1.08V6.38h3.24V8.09a19.28,19.28,0,0,1,2.87.39l.67.11L63,12.27ZM58,2.52A12.56,12.56,0,1,1,45.39,15.08,12.56,12.56,0,0,1,58,2.52Zm43.51,33.82h12.69a1.33,1.33,0,0,1,1.33,1.33V87a1.34,1.34,0,0,1-1.33,1.33H101.47A1.34,1.34,0,0,1,100.14,87V37.67a1.33,1.33,0,0,1,1.33-1.33ZM76.36,53.23H89.05a1.34,1.34,0,0,1,1.33,1.33V87a1.34,1.34,0,0,1-1.33,1.33H76.36A1.34,1.34,0,0,1,75,87V54.56a1.34,1.34,0,0,1,1.33-1.33ZM51.24,36.34H63.93a1.33,1.33,0,0,1,1.33,1.33V87a1.34,1.34,0,0,1-1.33,1.33H51.24A1.34,1.34,0,0,1,49.91,87V37.67a1.33,1.33,0,0,1,1.33-1.33ZM26.13,56H38.82a1.34,1.34,0,0,1,1.33,1.33V87a1.34,1.34,0,0,1-1.33,1.33H26.13A1.34,1.34,0,0,1,24.8,87V57.29A1.34,1.34,0,0,1,26.13,56Z"/></svg>